# xmcd
#
# Track frame offsets: 
#        150
#        18312
#        34583
#        56578
#        67143
#        81541
#        97875
#        119340
#        132578
#        155227
#        168129
#        181031
#        199837
#        212386
#        225312
#        237968
#
# Disc length: 3566 seconds
#
# Revision: 0
# Processed by: cddbd v1.5.2PL0 Copyright (c) Steve Scherf et al.
# Submitted via: ExactAudioCopy v0.99pb4
#
DISCID=d30dec10
DTITLE=Various Artist - The blues at Christmas 
DYEAR=1900
DGENRE=Blues
TTITLE0=Sherman Robertson - I m your man
TTITLE1=BB King - It's my own fault baby
TTITLE2=Larry Garner - Though I had the blues
TTITLE3=Charles Brown - Merry christmas Baby
TTITLE4=Albert Collins - Ice Pick
TTITLE5=John Lee hooker - My first wife left me
TTITLE6=Magic Sam -  I feel so good
TTITLE7=Elmores James - Dust my broom
TTITLE8=Fred mcdowell - Some day baby
TTITLE9=Rory Block - Rolling Log
TTITLE10=Robert Johnson - Come on in my kitchen
TTITLE11=Professor long hair - Mess around
TTITLE12=Memphis Minnie - nothin in ramblin
TTITLE13=T-Bone Walker - stormy Monday Blue
TTITLE14=Lightnin Slim - wintertime Done Rolled By
TTITLE15=lonnie Brooks - Two headed Man
EXTD=
EXTT0=
EXTT1=
EXTT2=
EXTT3=
EXTT4=
EXTT5=
EXTT6=
EXTT7=
EXTT8=
EXTT9=
EXTT10=
EXTT11=
EXTT12=
EXTT13=
EXTT14=
EXTT15=
PLAYORDER=
